
<svg xmlns="http://www.w3.org/2000/svg" viewBox="0 0 512 512">
  <defs>
    <filter id="shadow" x="-20%" y="-20%" width="140%" height="140%">
      <feDropShadow dx="0" dy="4" stdDeviation="4" flood-color="black" flood-opacity="0.25"/>
    </filter>
  </defs>
  <path fill="#ffffff" filter="url(#shadow)" d="M256 0c0 0-16.5 84.6-39.7 133.5-7.3 15.3-15.6 29.8-24.8 43.3-2 3-4.1 6-6.2 8.9-33.1-42.6-79.6-77.4-79.6-77.4s12.5 70.6 29.9 114.3c5.6 14.1 12.2 27.5 19.6 40.1-3.1 3.4-6.3 6.6-9.6 9.7-49.8-19.4-114.7-27.2-114.7-27.2s36.4 59.3 74.9 94.3c12.3 11.2 25.8 20.9 40.1 29-3.9 2.6-7.9 5-12 7.2-53 10-128.4 5.9-128.4 5.9s53.2 33.5 101.9 47.8c15.6 4.6 31.8 7.3 48.1 8-1.3.7-2.6 1.4-3.9 2.2C102 467 55 512 55 512s77.9-16.1 135-64.4c18.3-15.5 33.8-34.1 45.8-55 3.5 22.9 10.6 119.4 10.6 119.4h19.2s7.1-96.5 10.6-119.4c12 20.9 27.5 39.5 45.8 55 57.1 48.3 135 64.4 135 64.4s-47-45-96.5-72.4c-1.3-.7-2.6-1.4-3.9-2.2 16.3-.7 32.5-3.4 48.1-8 48.7-14.3 101.9-47.8 101.9-47.8s-75.4 4.1-128.4-5.9c-4.1-2.2-8.1-4.6-12-7.2 14.3-8.1 27.8-17.8 40.1-29 38.5-35 74.9-94.3 74.9-94.3s-64.9 7.8-114.7 27.2c-3.3-3.1-6.5-6.3-9.6-9.7 7.4-12.6 14-26 19.6-40.1 17.4-43.7 29.9-114.3 29.9-114.3s-46.5 34.8-79.6 77.4c-2.1-2.9-4.2-5.9-6.2-8.9-9.2-13.5-17.5-28-24.8-43.3C272.5 84.6 256 0 256 0z"/>
</svg>
